<?xml version="1.0" encoding="UTF-8" standalone="no" ?>
<!DOCTYPE svg PUBLIC "-//W3C//DTD SVG 1.1//EN" "http://www.w3.org/Graphics/SVG/1.1/DTD/svg11.dtd">
<svg xmlns="http://www.w3.org/2000/svg" xmlns:xlink="http://www.w3.org/1999/xlink" version="1.1" width="253" height="129" viewBox="0 0 253 129" xml:space="preserve">
<desc>Created with Fabric.js 3.6.3</desc>
<defs>
</defs>
<g transform="matrix(2.69 0 0 2.69 126.2 64.31)" id="path830"  >
<path style="stroke: none; stroke-width: 1; stroke-dasharray: none; stroke-linecap: butt; stroke-dashoffset: 0; stroke-linejoin: miter; stroke-miterlimit: 4; fill: rgb(0,57,132); fill-rule: evenodd; opacity: 1;"  transform=" translate(-46.89, -23.89)" d="m 56.707 29.416 c 0.714 3.69 -1.22 6.755 -2.827 9.73 c -1.785 2.768 -4.731 5.147 -8.272 4.791 c -7.946 -0.119 -15.712 -1.339 -22.914 -3.512 c -0.327 -0.089 -0.654 -0.298 -0.833 -0.595 c -0.149 -0.417 0.06 -0.804 0.357 -1.071 c 6.577 -5.327 14.403 -7.796 22.14 -10.386 c 2.886 -0.833 5.952 -1.726 9.195 -1.309 c 1.338 0.179 2.677 1.102 3.154 2.352 z M 83.816 13.645 c 3.69 3.035 7.023 7.172 5.892 12.171 c -1.845 7.38 -9.879 11.308 -16.277 13.807 c -3.482 1.161 -6.993 2.352 -10.802 2.709 c -0.238 -0.03 -0.625 0.029 -0.685 -0.328 l 0.089 -0.416 c 5.416 -6.101 9.522 -12.944 13.124 -19.878 c 1.666 -3.125 3.214 -6.338 4.642 -9.493 c 0.208 -0.238 0.417 -0.357 0.655 -0.446 c 1.338 0.118 2.291 1.16 3.362 1.874 z M 31.888 5.789 L 31.769 6.235 C 23.943 15.132 18.795 25.458 13.915 35.724 C 12.963 36.617 12.04 35.426 11.177 35.039 C 6.832 32.183 2.904 27.57 4.035 22.095 C 5.85 14.954 13.2 11.145 19.331 8.557 c 3.63 -1.369 7.41 -2.47 11.397 -3.095 c 0.417 -0.001 0.952 -0.06 1.16 0.327 z m 38.835 1.428 c 0.446 0.238 0.982 0.327 1.25 0.773 c 0.238 0.506 -0.238 0.833 -0.506 1.161 c -6.16 4.82 -13.212 7.499 -20.414 9.85 c -3.661 0.893 -7.351 2.5 -11.427 1.607 c -0.953 -0.238 -1.815 -0.863 -2.351 -1.786 c -1.012 -2.797 0.357 -5.713 1.547 -8.153 c 1.577 -3.065 4.375 -6.666 8.243 -6.725 c 8.332 -0.06 16.188 1.19 23.658 3.273 z M 81.019 7.455 C 87.328 10.907 94.47 16.977 93.726 25.071 C 92.863 32.57 85.87 37.807 79.621 40.962 C 61.379 49.681 35.758 49.948 16.921 42.331 C 10.552 39.683 3.41 35.13 0.731 28.285 C -1.322 22.661 1.177 16.799 5.374 12.901 C 14.152 4.926 25.341 2.189 36.858 0.611 c 12.499 -1.518 25.651 -0.179 36.84 3.66 c 2.5 0.923 4.97 1.935 7.321 3.184 z" stroke-linecap="round" />
</g>
</svg>