<svg width="1200" height="600" viewBox="0 0 1200 600" fill="none" xmlns="http://www.w3.org/2000/svg">
  <rect width="1200" height="600" fill="transparent"/>
  <path d="M96 220C120 176 180 150 248 154C296 158 348 182 360 220C370 254 328 282 286 300C244 318 196 338 162 322C120 304 72 264 96 220Z" fill="#1A2130"/>
  <path d="M388 190C404 160 456 148 514 156C570 164 610 190 620 224C632 262 608 286 572 304C536 322 486 338 446 324C408 308 372 252 388 190Z" fill="#1A2130"/>
  <path d="M660 176C690 140 746 132 810 146C874 160 910 192 916 232C922 272 890 300 848 320C808 338 760 352 720 332C684 314 632 212 660 176Z" fill="#1A2130"/>
  <path d="M902 214C934 188 980 186 1026 196C1074 206 1112 228 1116 260C1122 296 1092 318 1054 332C1016 346 972 356 942 336C914 318 874 242 902 214Z" fill="#1A2130"/>
  <path d="M438 350C470 320 532 306 604 312C676 318 720 350 730 388C742 430 712 460 666 482C620 504 560 520 506 496C454 472 412 396 438 350Z" fill="#1A2130"/>
</svg>
