<?xml version="1.0" encoding="UTF-8" standalone="no"?>
<!-- Created with Inkscape (http://www.inkscape.org/) -->

<svg
   version="1.0"
   width="162.04681"
   height="162.0056"
   id="svg30827"
   xmlns="http://www.w3.org/2000/svg"
   xmlns:svg="http://www.w3.org/2000/svg">
  <defs
     id="defs30829" />
  <g
     transform="translate(-479.68611,-223.98417)"
     id="layer1">
    <g
       transform="matrix(5.4896435,0,0,5.4896435,-973.72857,-2401.8378)"
       id="g30846">
      <path
         d="m 279.51507,507.68901 c 8.07019,0 14.61434,-6.53664 14.61434,-14.61059 0,-8.07394 -6.54415,-14.61058 -14.61434,-14.61058 -8.07144,0 -14.61434,6.53664 -14.61434,14.61058 0,8.07395 6.5429,14.61059 14.61434,14.61059 z"
         id="path495"
         style="fill:none;stroke:#000000;stroke-width:0.289962;stroke-linecap:butt;stroke-linejoin:miter;stroke-miterlimit:4;stroke-dasharray:none" />
      <path
         d="m 288.38391,494.89069 c -0.26872,-0.32496 -0.52993,-0.58743 -0.85239,-0.7999 0.12873,0.12498 0.25122,0.26247 0.37495,0.41245 0.41745,0.49993 0.66866,1.27483 0.66866,1.99974 0,1.44981 -0.91988,2.84962 -2.2572,3.47454 -1.10736,0.52493 -2.52842,0.7749 -4.36818,0.7749 -0.52243,0 -2.02723,-0.025 -4.53441,-0.05 -1.04736,-0.0125 -2.56341,0 -4.58065,0.0375 v 0.39995 c 2.25721,-0.05 3.92949,-0.0625 5.05809,-0.05 2.50717,0.025 4.01198,0.05 4.53441,0.05 1.83976,0 3.26082,-0.24997 4.36818,-0.7749 1.33732,-0.62492 2.2572,-2.02474 2.2572,-3.47455 0,-0.7249 -0.25122,-1.4998 -0.66866,-1.99973"
         id="path497"
         style="fill:#000000;fill-rule:nonzero;stroke:none;stroke-width:0.232;stroke-linecap:butt;stroke-linejoin:miter;stroke-miterlimit:4;stroke-dasharray:none" />
      <path
         d="m 287.96896,489.52889 c 0,0.66241 -0.18747,1.31233 -0.54368,1.84976 -0.56367,0.83739 -1.00611,1.07486 -2.36344,1.38731 0.34746,0.1 0.56743,0.28747 0.83489,0.37496 1.03987,-0.27497 1.50731,-0.62492 2.00599,-1.36233 0.3562,-0.54992 0.54368,-1.19984 0.54368,-1.86225 0,-1.13735 -0.60117,-2.22471 -1.56355,-2.88712 0.67992,0.66241 1.08611,1.56229 1.08611,2.49967"
         id="path499"
         style="fill:#000000;fill-rule:nonzero;stroke:none;stroke-width:0.232;stroke-linecap:butt;stroke-linejoin:miter;stroke-miterlimit:4;stroke-dasharray:none" />
      <path
         d="m 270.75622,484.92949 5.63426,0.0375 4.26944,-0.0375 c 1.88225,0 2.78214,0.13748 3.787,0.56243 1.33983,0.56242 2.21846,1.86225 2.21846,3.23707 0,0.67491 -0.18872,1.32483 -0.54493,1.87476 -0.56492,0.82489 -1.08735,1.16235 -2.44842,1.4748 1.63228,0.44995 2.26095,0.8249 2.93086,1.63729 0.41745,0.49993 0.66866,1.27483 0.66866,2.01224 0,1.43731 -0.91988,2.83712 -2.2597,3.47454 -1.10861,0.52493 -2.53217,0.7749 -4.37318,0.7749 -0.52368,0 -2.02973,-0.025 -4.54065,-0.05 -1.1311,-0.0125 -3.0821,0 -5.3418,0.05 v -3.47454 l 1.5123,0.0375 v -8.19893 l -1.5123,0.0375 z m 7.26655,6.1117 h 0.79489 c 0.87864,0 0.92113,0 1.27608,-0.14998 0.16748,-0.0625 0.31496,-0.14998 0.43995,-0.28746 0.25121,-0.27497 0.3762,-0.66242 0.3762,-1.04986 0,-0.92488 -0.56493,-1.38732 -1.67353,-1.38732 h -0.0837 l -0.62742,0.025 -0.50243,-0.025 z m 0,5.64926 h 0.39744 c 0.7949,0 1.23484,-0.025 1.58979,-0.11248 0.62867,-0.16248 1.06737,-0.72491 1.06737,-1.42482 0,-0.49993 -0.22997,-0.96237 -0.60618,-1.21234 -0.37745,-0.19997 -0.7324,-0.28746 -1.8835,-0.28746 h -0.56492 z"
         id="path523"
         style="fill:none;stroke:#000000;stroke-width:0.374951;stroke-linecap:butt;stroke-linejoin:miter;stroke-miterlimit:4;stroke-dasharray:none" />
    </g>
  </g>
</svg>
