<?xml version="1.0" encoding="UTF-8" standalone="no"?>
<svg
   width="48"
   height="19"
   fill="none"
   version="1.1"
   id="svg1"
   xmlns="http://www.w3.org/2000/svg"
   xmlns:svg="http://www.w3.org/2000/svg">
  <defs
     id="defs1" />
  <path
     fill-rule="evenodd"
     clip-rule="evenodd"
     d="M 42.458,8.77 37.683,0 H 22.952 l 4.753,8.77 z m -23.29,0.342 c 1.082,0.937 2.838,1.097 4.528,1.097 h 2.95 L 31.422,19 H 19.258 C 17.704,19 16.173,18.955 14.663,18.59 13.132,18.201 11.825,17.584 10.586,16.648 7.996,14.776 6.577,12.218 5.09,9.478 3.8731082,7.2609523 2.6677585,5.0375889 1.474,2.808 0.983,1.893 0.491,0.979 0,0.069 h 13.672 c 0.068,0.12 0.563,1.033 1.165,2.143 0.798821,1.4817216 1.604496,2.9597374 2.417,4.434 0.518,0.936 1.013,1.758 1.915,2.466 z M 33.27,19 28.495,10.185 H 43.203 L 48,19 H 33.269 Z"
     fill="#000000"
     id="path1" />
</svg>
